<?xml version="1.0" encoding="utf-8"?>
<!-- Generator: Adobe Illustrator 27.1.1, SVG Export Plug-In . SVG Version: 6.00 Build 0)  -->
<svg version="1.1" xmlns="http://www.w3.org/2000/svg" xmlns:xlink="http://www.w3.org/1999/xlink" x="0px" y="0px"
	 viewBox="0 0 430 330" style="enable-background:new 0 0 430 330;" xml:space="preserve">
<style type="text/css">
	.st0{fill:#F0F0EC;}
	.st1{fill:#FFB6B6;}
	.st2{fill:#FFFFFF;}
	.st3{fill:#A0616A;}
	.st4{fill:#2F2E41;}
	.st5{fill:#AEB88A;}
	.st6{fill:#374151;}
	.st7{fill:#436F68;}
</style>
<g id="Lager_2">
	<rect class="st0" width="430" height="330"/>
</g>
<g id="Lager_1">
	<g>
		<path id="uuid-6196eb31-7879-4347-98a5-d4920e9b844a-45" class="st1" d="M202.2,268.7c8.4,2.6,13.8,9.1,12.2,14.4
			s-9.8,7.5-18.2,4.9c-3.4-1-6.4-2.8-9-5.2l-35.4-11.5l5.8-16.5l34.3,13.1C195.3,267.4,198.8,267.6,202.2,268.7L202.2,268.7z"/>
		<path class="st2" d="M126.3,147.6L126.3,147.6c-8.4-1-16.2,4.7-17.8,13.1c-5.6,29.8-17.5,94.3-16,95.8c2,2,78.3,24.5,78.3,24.5
			l8.9-19.1l-50.4-24.5l11.1-71.3C141.8,157.1,135.4,148.7,126.3,147.6L126.3,147.6z"/>
	</g>
	<g>
		<path id="uuid-3fde6871-43da-4028-ab85-c0da4f58c237-46" class="st3" d="M218.2,299.7c-8.2,3.2-16.5,1.6-18.5-3.6
			c-2-5.2,3-12,11.1-15.2c3.3-1.3,6.8-1.8,10.3-1.5l34.9-13.1l5.8,16.5l-35,11.2C224.4,296.5,221.5,298.5,218.2,299.7L218.2,299.7z"
			/>
		<path class="st2" d="M268.5,158.2L268.5,158.2c8.4-1.6,16.5,3.6,18.6,11.8c7.6,29.4,23.8,92.9,22.4,94.5
			c-1.9,2.2-76.5,29.7-76.5,29.7l-10.1-18.4l48.6-27.8l-15.8-70.4C253.7,168.7,259.5,159.9,268.5,158.2L268.5,158.2z"/>
	</g>
	<polygon class="st1" points="120.3,151.9 124.5,126 96.5,114.5 92.3,154 	"/>
	<polygon class="st3" points="284.1,156 279.9,130 308,118.6 312.1,158.1 	"/>
	<g>
		<circle class="st1" cx="113.3" cy="105.7" r="28.6"/>
		<path class="st4" d="M111,67.3c0.8,0.5,1.9-0.2,2.2-1.2c0.3-0.9,0-1.9-0.4-2.8l-1.5-4.6c-1.1-3.2-2.3-6.6-4.6-9.1
			c-3.6-3.7-9.3-4.7-14.4-4c-6.6,0.9-13.1,4.4-16.1,10.3c-3.1,5.9-1.8,14.1,3.8,17.8c-7.9,9-10.6,19.1-10.2,31
			c0.4,12,13.5,23,22,31.4c1.9-1.2,3.6-6.5,2.6-8.5c-1-2,0.5-4.2-0.8-6c-1.3-1.8-2.4,1.1-1.1-0.7c0.8-1.1-2.4-3.7-1.2-4.4
			c5.9-3.3,7.9-10.7,11.6-16.3c4.5-6.8,12.2-11.4,20.3-12.2c4.5-0.4,9.2,0.3,12.9,2.9c3.7,2.6,6.1,7.3,5.2,11.7
			c2.2-2.2,3.3-5.5,2.9-8.6c-0.4-3.1-2.3-6-5-7.6c1.7-5.5,0.2-11.7-3.6-16c-3.8-4.2-19.4-3.5-25-2.4"/>
		<path class="st4" d="M110.1,88.1c-7.4,0.8-12.8,7.2-17.3,13.1c-2.6,3.4-5.3,7.2-5.3,11.5c0.1,4.3,3,8.1,4.4,12.2
			c2.3,6.7,0.1,14.7-5.3,19.3c5.3,1,11.1-3,12-8.3c1.1-6.2-3.6-12.2-3.1-18.5c0.5-5.5,4.9-9.8,8.6-14c3.7-4.1,7.2-9.6,5.5-14.9"/>
	</g>
	<path class="st2" d="M123.6,147.6l-32.4-8.9l-33.4,13.6l-14.3,113l81.7,2.7v-18.2c0,0,14.3-17.9,11.6-43.7l-2.7-25.9L123.6,147.6z"
		/>
	<path class="st5" d="M138.5,193.5l-64-3.4l-17.4,49.4c0,0-21.5,29.6-24.9,51.4s-1.4,52.4-1.4,52.4h102.5l-8.2-93.5
		c0,0,19.1-41.4,16.9-48.5C139.9,194.2,138.5,193.5,138.5,193.5L138.5,193.5z"/>
	<rect x="73.8" y="139.1" class="st5" width="15.7" height="57.9"/>
	<rect x="122.2" y="152" class="st5" width="15.7" height="47.7"/>
	<path class="st2" d="M279.5,153l32.4-8.9l33.4,13.6l14.3,113l-81.7,2.7v-18.2c0,0-8.4-18.6-0.3-43.4c7.8-24.2-8.5-26.2-8.5-26.2
		L279.5,153L279.5,153z"/>
	<path class="st6" d="M264.5,199l64-3.4l17.4,49.4c0,0,10.6,33.7,14,55.5c3.4,21.8,12.3,48.4,12.3,48.4H269.6l-3.1-89.9L264.5,199
		L264.5,199z"/>
	<rect x="313.6" y="144.5" class="st6" width="15.7" height="57.9"/>
	<rect x="265.2" y="157.4" class="st6" width="15.7" height="47.7"/>
	<circle class="st3" cx="290.4" cy="102.5" r="35.8"/>
	<path class="st4" d="M325.6,121.9c0,0-17.3-20.8-24.3-19.1c-6.9,1.7-2.6,4.3-2.6,4.3l-17.3-19.1c0,0-13.9-5.2-26.9,11.3
		c0,0-7.8-13.9,0-21.7c7.8-7.8,10.4-6.9,12.1-11.3c1.7-4.3,13.9-7.8,13.9-7.8s-0.7-6.2,3.1-3.1c3.8,3.1,13.3,3.1,13.3,3.1
		s0.1-3.5,3.9,0c3.9,3.5,8.2,1.7,8.2,1.7s0,6,3,6c3,0,8.2-4.3,9.1-0.8c0.9,3.5,6.9,5.2,7.8,15.6C330,91.6,325.6,121.9,325.6,121.9z"
		/>
	<g>
		<path class="st6" d="M192.8,175.3l27.7,52.4l-3.8,2L189,177.4c-0.4-0.8-0.1-1.7,0.6-2.1l1-0.6
			C191.5,174.3,192.4,174.6,192.8,175.3L192.8,175.3z"/>
		<path class="st6" d="M239,247.6c-7.1-1.8-14.4,1.4-18,7.8c-4.4,8-9.5,14.5-7.8-1.1c1.9-17.2-8.2-31-0.3-35.2
			c7.9-4.2,16.1,8.5,28.9,20C253.8,249.8,246.9,249.6,239,247.6L239,247.6z"/>
	</g>
	<g>
		<path id="uuid-0b6fad7f-d5d0-4a0c-a0be-ac212b15a3eb-47" class="st1" d="M198.2,185.9c8-3.7,16.4-2.5,18.7,2.6
			c2.3,5.1-2.3,12.2-10.3,15.8c-3.2,1.5-6.7,2.2-10.2,2.1l-34.1,15l-6.7-16.1l34.3-13.1C192.1,189.5,195,187.4,198.2,185.9
			L198.2,185.9z"/>
		<path class="st2" d="M60.9,146.4L60.9,146.4c-7,4.9-8.9,14.3-4.5,21.6c15.7,25.9,49.9,81.9,52.1,82c2.9,0.2,74.7-34,74.7-34
			l-6.1-20.1l-53.9,15.4l-39.3-60.5C78.7,143.1,68.4,141.1,60.9,146.4C60.9,146.4,60.9,146.4,60.9,146.4z"/>
	</g>
	<path class="st7" d="M201.6,266.4l92.1-48.7l11.3,21.4c9.8,18.4,2.7,41.3-15.7,51.1L264,303.5c-18.4,9.8-41.3,2.7-51.1-15.7
		L201.6,266.4L201.6,266.4L201.6,266.4L201.6,266.4z"/>
	<path id="uuid-e7b5d55a-e1e4-4cf1-854d-f1e320155ae0-48" class="st3" d="M279.6,299.2c-8,3.7-16.4,2.5-18.7-2.6
		c-2.3-5.1,2.3-12.2,10.3-15.8c3.2-1.5,6.7-2.2,10.2-2.1l34.1-15l6.7,16.1l-34.3,13.1C285.7,295.6,282.8,297.8,279.6,299.2
		L279.6,299.2z"/>
	<path class="st2" d="M348.9,155.1L348.9,155.1c8.4-1,16.2,4.7,17.8,13.1c5.6,29.8,17.5,94.3,16,95.8c-2,2-78.3,24.5-78.3,24.5
		l-8.9-19.1l50.4-24.5l-11.1-71.3C333.4,164.6,339.8,156.2,348.9,155.1L348.9,155.1z"/>
</g>
</svg>
