<?xml version="1.0" encoding="utf-8"?>
<!-- Generator: Adobe Illustrator 26.2.1, SVG Export Plug-In . SVG Version: 6.00 Build 0)  -->
<svg version="1.1" id="Lager_1" xmlns="http://www.w3.org/2000/svg" xmlns:xlink="http://www.w3.org/1999/xlink" x="0px" y="0px"
	 viewBox="0 0 50 50" style="enable-background:new 0 0 50 50;" xml:space="preserve">
<style type="text/css">
	.st0{fill:#FFFFFF;}
	.st1{fill:#AEB88A;}
	.st2{fill:#E5E5E5;}
</style>
<circle id="White_Circle" class="st0" cx="25" cy="25" r="25"/>
<circle id="Circle" class="st1" cx="25" cy="25" r="20"/>
<path id="Symbol" class="st0" d="M35.9,13.2c-6.5-6-16.7-5.6-22.7,0.9s-5.6,16.7,0.9,22.7l0,0c3.3,2.8,6.9,4.2,11,4.2
	c1.3,0,2.5-0.1,3.9-0.4l0.3-0.1c0.2,0,0.4-0.3,0.4-0.5l-0.1-0.7c-0.1-0.2-0.3-0.4-0.6-0.4L28.6,39c-5.1,1-9.6-0.1-13.4-3.4
	C9.4,30.2,9,21.1,14.4,15.3s14.5-6.2,20.4-0.8c5.3,4.9,5.2,11.9,3.5,16.4c-1.1,3-3.1,5.1-4.7,5.2c-1.3,0-3.9-1-6.3-6.8
	c-0.1-0.2-0.2-0.5-0.3-0.7c0-0.1,0.1-0.3,0.1-0.4s0.1-0.4,0.2-0.7c1.3-5.5,2.4-12.1,0.5-14.6c-0.5-0.6-1.2-1-2-1
	c-1.2,0-2.6,0.9-2.6,5.2c0,1.6,0.1,3.4,0.5,5.2c0.3,1.9,1.2,5.1,1.6,6.2c-0.3,0.7-0.8,1.8-1.5,2.7c-1.1,1.6-2,2.1-2.4,2.1
	c-0.3,0-0.5-0.1-0.7-0.3c-0.4-0.4-1-1.5-0.7-5c0.2-1.6,1-2.9,1.9-3.4c0.3-0.1,0.5-0.2,0.8-0.2s0.6,0.1,0.9,0.2
	c-0.1-0.3-0.3-1.6-0.4-1.8c-0.9-0.1-1.7,0.1-2.2,0.4c-1.4,0.7-2.5,2.5-2.7,4.7c-0.3,3.3,0.1,5.2,1.1,6.3c0.5,0.5,1.2,0.8,1.9,0.8
	c1.4,0,2.8-1.6,3.7-2.9c0.3-0.5,0.7-1,1-1.6c2.6,5.8,5.5,7.1,7.5,7.1l0,0l0,0c2.4,0,4.8-2.5,6.3-6.3C41.7,26.4,41.8,18.6,35.9,13.2z
	 M26,25.3c-0.8-2.8-1.2-5.8-1.2-8.3c0-2.6,0.6-3.6,1-3.6c0.3,0,0.5,0.1,0.7,0.3C27.7,15.3,27,20.6,26,25.3z"/>
<path id="Border" class="st2" d="M45.4,39.5h-1C39.9,45.3,32.9,49,25,49s-14.9-3.7-19.4-9.5h-1C9.2,45.9,16.6,50,25,50
	S40.8,45.9,45.4,39.5L45.4,39.5z"/>
</svg>
