<?xml version="1.0" encoding="utf-8"?>
<!-- Generator: Adobe Illustrator 25.4.1, SVG Export Plug-In . SVG Version: 6.00 Build 0)  -->
<svg version="1.1" id="Lager_1" xmlns="http://www.w3.org/2000/svg" xmlns:xlink="http://www.w3.org/1999/xlink" x="0px" y="0px"
	 viewBox="0 0 75 75" style="enable-background:new 0 0 75 75;" xml:space="preserve">
<style type="text/css">
	.st0{fill:#436F68;}
	.st1{fill:#AFB78A;}
</style>
<path class="st0" d="M0,0h75v75H0V0z"/>
<path class="st1" d="M46.5,27.5v20h-2v-7h-4v-7C40.5,30.2,43.2,27.5,46.5,27.5z M44.5,30c-0.8,0.5-2,1.6-2,3.5v5h2
	C44.5,38.5,44.5,30,44.5,30z M34.5,39.4v8.1h-2v-8.1c-2.3-0.5-4-2.5-4-4.9v-6h2v7h2v-7h2v7h2v-7h2v6C38.5,36.9,36.8,38.9,34.5,39.4z
	"/>
</svg>
