<?xml version="1.0" standalone="no"?>
<!DOCTYPE svg PUBLIC "-//W3C//DTD SVG 20010904//EN"
 "http://www.w3.org/TR/2001/REC-SVG-20010904/DTD/svg10.dtd">
<svg version="1.0" xmlns="http://www.w3.org/2000/svg"
 width="700.000000pt" height="700.000000pt" viewBox="0 0 700.000000 700.000000"
 preserveAspectRatio="xMidYMid meet">
<metadata>
Created by potrace 1.14, written by Peter Selinger 2001-2017
</metadata>
<g transform="translate(0.000000,700.000000) scale(0.100000,-0.100000)"
fill="#000000" stroke="none">
<path d="M3285 6994 c-22 -2 -89 -9 -150 -14 -585 -57 -1178 -282 -1670 -633
-234 -167 -517 -435 -698 -662 -367 -458 -619 -1019 -716 -1595 -36 -214 -46
-332 -46 -590 0 -258 10 -376 46 -590 137 -809 561 -1549 1194 -2085 532 -450
1170 -722 1890 -807 144 -16 586 -16 735 1 689 78 1331 348 1854 779 127 105
340 316 451 447 450 532 722 1170 807 1890 7 62 13 220 13 365 0 145 -6 303
-13 365 -99 844 -447 1558 -1043 2141 -555 542 -1251 875 -2029 970 -118 14
-539 27 -625 18z m442 -695 c566 -47 1084 -252 1528 -603 120 -95 345 -319
439 -436 303 -379 489 -815 571 -1340 25 -163 31 -539 11 -730 -20 -184 -61
-398 -111 -569 -124 -427 -383 -869 -638 -1091 -185 -160 -351 -230 -547 -230
-361 0 -707 237 -1007 690 -84 126 -162 263 -240 424 -48 98 -59 116 -68 101
-119 -204 -276 -416 -395 -535 -230 -231 -413 -282 -629 -174 -157 79 -262
255 -308 520 -21 122 -24 514 -5 677 63 532 374 886 780 887 66 0 73 -2 81
-23 8 -21 61 -271 61 -288 0 -4 -21 -1 -47 7 -66 20 -153 18 -216 -6 -140 -52
-275 -243 -337 -475 -49 -186 -50 -616 -1 -802 48 -184 132 -268 249 -249 141
22 406 330 573 663 47 94 79 170 76 180 -2 10 -26 86 -52 168 -110 352 -242
940 -280 1255 -21 171 -32 509 -24 710 14 331 80 541 207 663 80 76 148 100
264 95 75 -4 96 -9 160 -40 88 -44 172 -124 216 -205 183 -344 172 -1006 -33
-2010 -47 -233 -87 -408 -129 -565 l-26 -98 61 -142 c290 -677 623 -1071 978
-1154 168 -40 321 19 500 190 165 159 301 368 405 624 252 615 282 1313 85
1917 -277 843 -998 1474 -1884 1649 -181 35 -296 46 -504 46 -497 0 -976 -143
-1382 -412 -169 -113 -261 -188 -409 -337 -327 -329 -549 -731 -659 -1192 -51
-218 -74 -551 -52 -785 64 -696 424 -1359 953 -1755 411 -308 831 -472 1333
-520 237 -23 643 3 869 55 116 27 160 -8 172 -135 8 -94 -8 -119 -93 -142
-181 -51 -522 -83 -788 -74 -629 20 -1144 205 -1675 600 -721 536 -1138 1489
-1059 2424 106 1262 1013 2280 2254 2528 105 21 227 37 360 48 95 8 293 6 412
-4z"/>
<path d="M3594 5505 c-37 -37 -73 -123 -97 -233 -20 -89 -22 -124 -21 -422 0
-272 4 -355 22 -508 34 -278 102 -627 164 -847 l11 -40 14 55 c26 109 102 539
127 715 44 319 51 413 51 685 0 218 -3 280 -18 350 -31 144 -78 228 -144 256
-48 21 -81 17 -109 -11z"/>
</g>
</svg>
