<?xml version="1.0" encoding="utf-8"?>
<!-- Generator: Adobe Illustrator 26.3.1, SVG Export Plug-In . SVG Version: 6.00 Build 0)  -->
<svg version="1.1" xmlns="http://www.w3.org/2000/svg" xmlns:xlink="http://www.w3.org/1999/xlink" x="0px" y="0px"
	 viewBox="0 0 1000 850" style="enable-background:new 0 0 1000 850;" xml:space="preserve">
<style type="text/css">
	.st0{fill:#F0F0EB;}
	.st1{fill:#8E7C5E;}
	.st2{fill:#7A6A52;}
	.st3{fill:#C4C4C4;}
	.st4{fill:#436F68;}
	.st5{fill:#33544E;}
	.st6{fill:#2F2E41;}
	.st7{fill:#FFB9B9;}
	.st8{fill:#ADB98A;}
	.st9{fill:#3F3D56;}
	.st10{fill:#999999;}
</style>
<g id="Lager_2">
	<path class="st0" d="M802.3,122.7c213.4,125.8,266.9,646.3,9.5,689.6c-188.9,31.7-424.1,31.2-639.3-0.1
		C-21.8,784-40.6,355.1,144,170.5S617.4,13.7,802.3,122.7z"/>
</g>
<g id="Lager_1">
	
		<rect x="332.7" y="261.1" transform="matrix(0.8362 -0.5484 0.5484 0.8362 -229.6992 277.1768)" class="st1" width="33" height="524"/>
	<path class="st1" d="M153.6,130.1l63.8,97.3c2.6,3.9,1.5,9.2-2.4,11.8s-9.2,1.5-11.8-2.4l0,0l-73.4-111.9c-10-0.8-20,0.8-29.1,4.8
		l80,121.9c2.6,3.9,1.5,9.2-2.5,11.8c-3.9,2.6-9.2,1.5-11.8-2.4L86.4,139c-7.3,6.8-12.8,15.4-16,24.8l73.4,111.9
		c2.6,3.9,1.5,9.2-2.5,11.8c-3.9,2.6-9.2,1.5-11.8-2.4l-63.8-97.3c-1.6,27.1,7.2,59.3,26.6,88.9c36,55,94.8,80.1,131.3,56.2
		s36.8-87.9,0.8-142.8C205.1,160.3,179.1,139.4,153.6,130.1z"/>
	<rect x="371.2" y="210.5" class="st1" width="33" height="524"/>
	<ellipse class="st1" cx="387.2" cy="125.5" rx="79" ry="119"/>
	<ellipse class="st2" cx="387.2" cy="125.5" rx="65" ry="97.9"/>
	<ellipse class="st3" cx="495.2" cy="822.6" rx="364" ry="20.9"/>
	<path class="st4" d="M710.4,822.3c-136.4-24.6-276.1-24.6-412.5,0c-8.2,1.5-16-3.9-17.5-12.1c-0.2-0.9-0.2-1.8-0.2-2.7V620.6h448
		v186.9c0,8.3-6.8,15-15.1,15C712.2,822.5,711.3,822.4,710.4,822.3z"/>
	<path class="st4" d="M687.2,482.6c-10.3,0-20.6,1.7-30.4,5.1c-41.4-89.8-147.8-129-237.6-87.6c-38.1,17.6-68.9,48-86.9,86
		c-49.5-13.9-100.8,15-114.7,64.4c-13.9,49.5,15,100.8,64.4,114.7c20.7,5.8,42.7,4.3,62.4-4.3c54.2,82.7,165.2,105.7,247.9,51.5
		c21.2-13.9,39.2-32.2,52.8-53.6c45.9,23.1,101.8,4.7,124.9-41.1c23.1-45.9,4.7-101.8-41.1-124.9C716.1,486,701.7,482.6,687.2,482.6
		z"/>
	<path class="st5" d="M316.2,562.6h-2c-0.1-26.6,5.8-52.9,17.2-77l1.8,0.9C321.9,510.2,316.1,536.2,316.2,562.6z"/>
	<path class="st5" d="M674.2,562.6h-2c0.1-25.7-5.5-51.2-16.3-74.5l1.8-0.8C668.6,510.8,674.2,536.6,674.2,562.6z"/>
	<path class="st5" d="M280.4,707.5l-0.5-1.9c0.6-0.1,57.4-14.1,140.7-21c76.9-6.4,192.7-7.9,307.8,21l-0.5,1.9
		c-114.8-28.9-230.4-27.4-307.1-21C337.7,693.5,281,707.4,280.4,707.5z"/>
	<path class="st5" d="M280.4,734.5l-0.5-1.9c0.6-0.1,57.4-14.1,140.7-21c76.9-6.4,192.7-7.9,307.8,21l-0.5,1.9
		c-114.8-28.9-230.4-27.4-307.1-21C337.7,720.5,281,734.4,280.4,734.5z"/>
	<path class="st5" d="M280.4,761.5l-0.5-1.9c0.6-0.1,57.4-14.1,140.7-21c76.9-6.4,192.7-7.9,307.8,21l-0.5,1.9
		c-114.8-28.9-230.4-27.4-307.1-21C337.7,747.5,281,761.4,280.4,761.5z"/>
	<path class="st6" d="M648.4,614.7l-24.2-8.2l23.3-118.7l-16-1.5c-15.6,12-36.4,16.7-63,13.1l42.6,64.5l-21.7,15.3L520,496
		c-3.1-3.8-4.8-8.5-4.8-13.4l0,0c0-9.3,6.2-17.5,15.1-20.1l74.1-21.3l86.7,9.7c13.1,20,13.6,33.9-6.3,37.9L648.4,614.7z"/>
	<path class="st6" d="M623.6,660.9L623.6,660.9c-8.8-0.6-15.5-8.1-14.9-16.9c0.1-1.6,0.5-3.2,1.1-4.8l12-31
		c6.1-11.6,14.5-10.1,24.4,0l4.8,14.2c0.8,2.4,0.6,5-0.5,7.2l-11.7,22.7C635.9,657.9,630,661.3,623.6,660.9z"/>
	<path class="st6" d="M592.3,620.4L592.3,620.4c-8.8-0.6-15.5-8.1-14.9-16.9c0.1-1.6,0.5-3.2,1.1-4.8l12-31
		c6.1-11.6,14.5-10.1,24.4,0l4.8,14.2c0.8,2.4,0.6,5-0.5,7.2l-11.7,22.7C604.6,617.4,598.7,620.8,592.3,620.4z"/>
	<circle class="st7" cx="607.7" cy="300.7" r="27.1"/>
	<polygon class="st7" points="649.9,339 612.6,358.4 604.8,323.5 630.5,307.5 	"/>
	<path class="st8" d="M695,455.8c-37.2-11.2-71-17.1-95.5-8.2c8.4-23.7-7.1-59.9-24.2-96.9c7.4-9.6,19.1-13.4,32.5-15
		c14.6,10.6,24.7,3.8,32.5-12.6c16.9-0.7,33.1,5.3,48.9,15.5C676.8,378.2,679,417.3,695,455.8z"/>
	<path class="st8" d="M599,453.4c-5.9,3.5-11.3,9.3-16.5,16.5c-8.7-5.3-16.4-11.4-22.5-18.7c-8.6-10.4-11.4-24.5-7.3-37.4l16.6-53.8
		c1.4-4.5,4-8.4,7.7-11.4l2.2-1.8l21.8,41.2l-21.8,40.7C581.9,436.1,590.1,444.6,599,453.4z"/>
	<path class="st7" d="M606.5,494.4L606.5,494.4c-7,3.2-15.3,0.1-18.6-6.9c-0.5-1.2-0.9-2.5-1.1-3.8l-3.6-24.7l12.6-6.8l16,20.9
		c4.7,6.1,3.5,14.9-2.6,19.6C608.4,493.4,607.5,494,606.5,494.4z"/>
	<path class="st6" d="M635.1,299.5l-4.6,0.1l-12.9-18.2c-16.5,1.7-30,8.9-41.4,19.8l-1.2-7.7c-2.3-15.3,7.8-29.7,22.9-32.8h0
		c15.7-3.2,31.1,6.9,34.4,22.6c0.1,0.3,0.1,0.7,0.2,1L635.1,299.5z"/>
	<path class="st7" d="M583,469.8L583,469.8c-3.2-7-0.1-15.3,6.9-18.6c1.2-0.5,2.5-0.9,3.8-1.1l24.7-3.6l6.8,12.6l-20.9,16
		c-6.1,4.7-14.9,3.5-19.6-2.6C584,471.7,583.4,470.8,583,469.8z"/>
	<path class="st8" d="M699.7,447.4c-23.5,1.8-49.1,9.1-75.9,19.5c-0.3-8-3.2-15.6-8.2-21.8c24.4-6.4,46.5-14,60.1-25.7l-8.2-62
		l17.9-20.4l3.1,1.6c5.2,2.7,9,7.5,10.5,13.1c7.6,29.4,10.9,57.7,8.6,84.2C708.1,441.2,704.8,446.1,699.7,447.4z"/>
	<path class="st9" d="M227.1,816.7c-21.8,13.7-43.7,13.6-65.5,0c-1.4-0.9-2.2-2.4-2.1-4.1l6.8-88.6h55.1l7.8,88.5
		C229.3,814.2,228.5,815.8,227.1,816.7z"/>
	<ellipse class="st9" cx="193.6" cy="725" rx="27.8" ry="10"/>
	<path class="st3" d="M215.4,721.6c-14.5,10.2-28.5,10.2-42.1,0v-16h42.1V721.6z"/>
	<ellipse class="st3" cx="194.3" cy="705.6" rx="21" ry="8"/>
	<ellipse class="st10" cx="195.3" cy="704.6" rx="2" ry="1"/>
	<ellipse class="st10" cx="204.8" cy="704.6" rx="2" ry="1"/>
	<ellipse class="st10" cx="200.1" cy="707" rx="2" ry="1"/>
	<ellipse class="st10" cx="181.1" cy="707" rx="2" ry="1"/>
	<ellipse class="st10" cx="185.9" cy="704.6" rx="2" ry="1"/>
	<ellipse class="st10" cx="190.6" cy="708.1" rx="2" ry="1"/>
	<path class="st9" d="M832.1,816.7c-21.8,13.7-43.7,13.6-65.5,0c-1.4-0.9-2.2-2.4-2.1-4.1l6.8-88.6h55.1l7.8,88.5
		C834.3,814.2,833.5,815.8,832.1,816.7z"/>
	<ellipse class="st9" cx="798.6" cy="725" rx="27.8" ry="10"/>
	<path class="st3" d="M820.4,721.6c-14.5,10.2-28.5,10.2-42.1,0v-16h42.1V721.6z"/>
	<ellipse class="st3" cx="799.3" cy="705.6" rx="21" ry="8"/>
	<ellipse class="st10" cx="800.3" cy="704.6" rx="2" ry="1"/>
	<ellipse class="st10" cx="809.8" cy="704.6" rx="2" ry="1"/>
	<ellipse class="st10" cx="805.1" cy="707" rx="2" ry="1"/>
	<ellipse class="st10" cx="786.1" cy="707" rx="2" ry="1"/>
	<ellipse class="st10" cx="790.9" cy="704.6" rx="2" ry="1"/>
	<ellipse class="st10" cx="795.6" cy="708.1" rx="2" ry="1"/>
</g>
</svg>
